<svg width="192" height="192" viewBox="0 0 192 192" fill="none" xmlns="http://www.w3.org/2000/svg">
<path d="M0 96C0 42.9807 42.9807 0 96 0V0C149.019 0 192 42.9807 192 96V96C192 149.019 149.019 192 96 192V192C42.9807 192 0 149.019 0 96V96Z" fill="#536055"/>
<path d="M98.0864 63.4441C99.0077 62.5261 99.0132 61.0102 97.9995 60.195C92.1729 55.5092 85.2701 52.2943 77.8782 50.8602C68.9311 49.1244 59.6692 50.0754 51.2636 53.5929C42.8581 57.1105 35.6865 63.0366 30.6557 70.6219C25.6249 78.2072 22.9608 87.1111 23.0004 96.2074C23.0401 105.304 25.7815 114.184 30.8782 121.726C35.9749 129.267 43.1979 135.131 51.6337 138.575C60.0696 142.02 69.3395 142.89 78.2711 141.077C85.526 139.604 92.293 136.414 98.017 131.806C99.0303 130.99 99.0241 129.474 98.1024 128.557C96.0081 126.472 94.1099 124.181 92.44 121.711C92.0174 121.085 91.1347 120.968 90.5565 121.454C86.3036 125.028 81.2089 127.495 75.7293 128.608C69.2688 129.919 62.5636 129.289 56.4617 126.798C50.3598 124.306 45.1352 120.065 41.4486 114.61C39.42 111.608 37.9071 108.313 36.952 104.86C36.5863 103.538 37.6239 102.287 38.9981 102.287H81.951C83.1595 102.287 84.1392 101.309 84.1392 100.103V91.9018C84.1392 90.6957 83.1595 89.7179 81.951 89.7179H39.001C37.6265 89.7179 36.5888 88.4659 36.955 87.1437C37.8846 83.7878 39.3412 80.5802 41.2877 77.6454C44.9266 72.1587 50.114 67.8721 56.194 65.3278C62.274 62.7834 68.9734 62.0955 75.4451 63.3511C81.1484 64.4576 86.4492 67.0297 90.832 70.7953C91.2557 71.1594 91.9089 71.0722 92.2175 70.6069C93.936 68.0157 95.9044 65.6181 98.0864 63.4441Z" fill="white"/>
<path d="M168.356 126.835C169.214 127.684 169.223 129.071 168.333 129.886C162.174 135.524 154.584 139.394 146.369 141.062C137.437 142.875 128.167 142.005 119.731 138.56C111.296 135.116 104.073 129.252 98.976 121.711C93.8793 114.169 91.1378 105.289 91.0982 96.1924C91.0586 87.096 93.7226 78.1922 98.7534 70.6069C103.784 63.0216 110.956 57.0954 119.361 53.5779C127.767 50.0603 137.029 49.1093 145.976 50.8452C154.206 52.4419 161.829 56.2459 168.036 61.8296C168.934 62.6372 168.937 64.0242 168.086 64.8808L162.191 70.8157C161.34 71.6722 159.959 71.6721 159.046 70.881C154.641 67.0605 149.297 64.4524 143.543 63.3361C137.071 62.0805 130.372 62.7684 124.292 65.3127C118.212 67.8571 113.024 72.1436 109.385 77.6303C105.746 83.117 103.82 89.5574 103.848 96.1371C103.877 102.717 105.86 109.14 109.546 114.595C113.233 120.05 118.458 124.291 124.56 126.783C130.661 129.274 137.367 129.904 143.827 128.592C149.571 127.426 154.892 124.772 159.264 120.913C160.17 120.114 161.551 120.102 162.409 120.951L168.356 126.835Z" fill="white"/>
</svg>
